<svg xmlns="http://www.w3.org/2000/svg" viewBox="0 0 512 512" width="100%" height="100%">
  <defs>
    <linearGradient id="metal-prong" x1="0%" y1="0%" x2="100%" y2="0%">
      <stop offset="0%" stop-color="#ffffff" />
      <stop offset="25%" stop-color="#e2e8f0" />
      <stop offset="65%" stop-color="#94a3b8" />
      <stop offset="100%" stop-color="#475569" />
    </linearGradient>
    
    <linearGradient id="swoosh-dark" x1="0%" y1="0%" x2="100%" y2="100%">
      <stop offset="0%" stop-color="#1e3a8a" />
      <stop offset="100%" stop-color="#0f172a" />
    </linearGradient>

    <linearGradient id="swoosh-light" x1="0%" y1="0%" x2="100%" y2="100%">
      <stop offset="0%" stop-color="#3b82f6" />
      <stop offset="100%" stop-color="#1d4ed8" />
    </linearGradient>
    
    <filter id="subtle-shadow" x="-10%" y="-10%" width="120%" height="120%">
      <feDropShadow dx="0" dy="4" stdDeviation="6" flood-color="#0f172a" flood-opacity="0.15"/>
    </filter>
  </defs>

  <g filter="url(#subtle-shadow)">
    <path d="M 120 390 C 40 310 45 170 135 105 C 220 45 365 55 425 135 C 445 160 455 190 455 220 C 425 145 355 95 275 100 C 170 105 90 195 95 305 C 97 338 106 366 120 390 Z" fill="url(#swoosh-dark)" />
    
    <path d="M 392 122 C 472 202 467 342 377 407 C 292 467 147 457 87 377 C 67 352 57 322 57 292 C 87 367 157 417 237 412 C 342 407 422 317 417 207 C 415 174 406 146 392 122 Z" fill="url(#swoosh-light)" />
  </g>

  <g transform="translate(256, 256) rotate(40) translate(-256, -256)">
    <path d="M 238 360 L 274 360 L 274 450 C 274 458 266 465 256 465 C 246 465 238 458 238 450 Z" fill="#334155" />
    
    <path d="M 224 320 L 288 320 L 276 370 L 236 370 Z" fill="#1e293b" />
    <path d="M 230 340 L 282 340 L 278 352 L 234 352 Z" fill="#0f172a" />
    
    <path d="M 186 210 C 186 175 205 145 256 145 C 307 145 326 175 326 210 L 314 325 L 198 325 Z" fill="#1e293b" />
    <path d="M 198 220 C 198 190 212 160 256 160 C 300 160 314 190 314 220 L 304 315 L 208 315 Z" fill="#0f172a" />
    
    <rect x="174" y="195" width="164" height="32" rx="10" fill="#1e293b" />
    <rect x="178" y="199" width="156" height="24" rx="7" fill="#334155" opacity="0.3" />
    
    <line x1="220" y1="250" x2="292" y2="250" stroke="#0f172a" stroke-width="5" stroke-linecap="round" />
    <line x1="220" y1="272" x2="292" y2="272" stroke="#0f172a" stroke-width="5" stroke-linecap="round" />
    <line x1="220" y1="294" x2="292" y2="294" stroke="#0f172a" stroke-width="5" stroke-linecap="round" />
    
    <line x1="222" y1="252" x2="290" y2="252" stroke="#475569" stroke-width="2" stroke-linecap="round" />
    <line x1="222" y1="274" x2="290" y2="274" stroke="#475569" stroke-width="2" stroke-linecap="round" />
    <line x1="222" y1="296" x2="290" y2="296" stroke="#475569" stroke-width="2" stroke-linecap="round" />

    <rect x="202" y="80" width="22" height="115" rx="11" fill="url(#metal-prong)" />
    <rect x="288" y="80" width="22" height="115" rx="11" fill="url(#metal-prong)" />
    <rect x="245" y="55" width="22" height="140" rx="11" fill="url(#metal-prong)" />
    
    <ellipse cx="213" cy="92" rx="6" ry="10" fill="#ffffff" opacity="0.4" />
    <ellipse cx="256" cy="67" rx="6" ry="10" fill="#ffffff" opacity="0.4" />
    <ellipse cx="299" cy="92" rx="6" ry="10" fill="#ffffff" opacity="0.4" />
  </g>
</svg>